<?xml version="1.0" standalone="no"?>
<!DOCTYPE svg PUBLIC "-//W3C//DTD SVG 20010904//EN"
 "http://www.w3.org/TR/2001/REC-SVG-20010904/DTD/svg10.dtd">
<svg version="1.0" xmlns="http://www.w3.org/2000/svg"
 width="512.000000pt" height="512.000000pt" viewBox="0 0 512.000000 512.000000"
 preserveAspectRatio="xMidYMid meet">
<metadata>
Created by potrace 1.14, written by Peter Selinger 2001-2017
</metadata>
<g transform="translate(0.000000,512.000000) scale(0.100000,-0.100000)"
fill="#000000" stroke="none">
<path d="M487 5100 c-189 -50 -336 -171 -422 -346 -69 -140 -65 5 -62 -2224
l2 -2015 23 -65 c80 -222 235 -369 453 -430 73 -20 94 -20 2106 -20 1134 0
2033 4 2033 9 0 5 17 12 37 16 42 8 115 39 155 67 16 11 33 16 39 12 7 -4 10
-3 6 2 -3 5 19 29 47 54 29 25 64 60 77 79 48 68 59 86 65 103 4 10 11 15 17
11 5 -3 7 -1 4 5 -4 5 2 31 13 56 10 25 18 46 16 46 -2 0 2 21 10 46 11 39 14
367 13 2038 0 1236 -4 2014 -10 2051 -6 33 -17 73 -25 89 -7 16 -14 35 -14 43
0 8 -5 11 -12 7 -7 -4 -8 -3 -4 4 11 18 -45 109 -114 185 -52 58 -202 153
-221 141 -7 -4 -9 -3 -6 3 4 6 -5 13 -21 16 -15 4 -54 13 -87 20 -51 12 -368
15 -2055 15 -1886 0 -1999 -1 -2063 -18z m3893 -54 c0 -2 -8 -10 -17 -17 -16
-13 -17 -12 -4 4 13 16 21 21 21 13z m-693 -81 c0 -8 -4 -12 -9 -9 -5 3 -6 10
-3 15 9 13 12 11 12 -6z m-2 -165 c3 -5 1 -10 -4 -10 -6 0 -11 5 -11 10 0 6 2
10 4 10 3 0 8 -4 11 -10z m1239 -78 c3 -5 -1 -9 -9 -9 -8 0 -12 4 -9 9 3 4 7
8 9 8 2 0 6 -4 9 -8z m-914 -76 c0 -3 -4 -8 -10 -11 -5 -3 -10 -1 -10 4 0 6 5
11 10 11 6 0 10 -2 10 -4z m391 -13 c13 -16 12 -17 -3 -4 -17 13 -22 21 -14
21 2 0 10 -8 17 -17z m366 2 c0 -8 -4 -12 -9 -9 -5 3 -6 10 -3 15 9 13 12 11
12 -6z m53 9 c0 -8 -19 -13 -24 -6 -3 5 1 9 9 9 8 0 15 -2 15 -3z m144 -10 c3
-8 2 -12 -4 -9 -6 3 -10 10 -10 16 0 14 7 11 14 -7z m-264 -30 c0 -8 -19 -13
-24 -6 -3 5 1 9 9 9 8 0 15 -2 15 -3z m-693 -129 c0 -8 -4 -12 -9 -9 -5 3 -6
10 -3 15 9 13 12 11 12 -6z m333 9 c0 -8 -19 -13 -24 -6 -3 5 1 9 9 9 8 0 15
-2 15 -3z m230 -44 c0 -5 -5 -10 -11 -10 -5 0 -7 5 -4 10 3 6 8 10 11 10 2 0
4 -4 4 -10z m355 -48 c-3 -3 -11 0 -18 7 -9 10 -8 11 6 5 10 -3 15 -9 12 -12z
m-1680 -21 c3 -5 2 -12 -3 -15 -5 -3 -9 1 -9 9 0 17 3 19 12 6z m1319 -49 c3
-5 -1 -9 -9 -9 -8 0 -12 4 -9 9 3 4 7 8 9 8 2 0 6 -4 9 -8z m-160 -40 c3 -5
-1 -9 -9 -9 -8 0 -12 4 -9 9 3 4 7 8 9 8 2 0 6 -4 9 -8z m-649 -122 c-3 -5
-12 -10 -18 -10 -7 0 -6 4 3 10 19 12 23 12 15 0z m369 -118 c3 -5 -1 -9 -9
-9 -8 0 -12 4 -9 9 3 4 7 8 9 8 2 0 6 -4 9 -8z m610 0 c2 -4 -4 -8 -14 -8 -10
0 -16 4 -14 8 3 4 9 8 14 8 5 0 11 -4 14 -8z m113 -87 c0 -8 -4 -12 -9 -9 -5
3 -6 10 -3 15 9 13 12 11 12 -6z"/>
</g>
</svg>
